<svg width="360" height="640" xmlns="http://www.w3.org/2000/svg" fill="none">

 <g>
  <title>Layer 1</title>
  <path stroke="#000000" id="svg_1" stroke-linejoin="round" stroke-linecap="round" stroke-width="10" d="m213.63748,264.92737l-12.40675,-12.351m-54.86975,12.351l12.40694,-12.351m21.23131,-40.5092l0,14.41649l6.929,6.81559m-32.19305,-48.06642c-1.80239,-1.80239 -4.24697,-2.81499 -6.79598,-2.81499c-2.54896,0 -4.99355,1.01261 -6.79594,2.81499c-1.80239,1.80239 -2.81494,4.24697 -2.81499,6.79594c0,2.54901 1.01261,4.99355 2.81499,6.79598m77.71344,-0.00793c1.80253,-1.80243 2.81504,-4.24697 2.81504,-6.79598c0,-2.54896 -1.01251,-4.99355 -2.81504,-6.79594c-1.80253,-1.80239 -4.24707,-2.81499 -6.79589,-2.81499c-2.5493,0 -4.99384,1.01261 -6.79589,2.81499m8.37256,41.25876c0,18.57792 -15.06033,33.63825 -33.63825,33.63825c-18.57792,0 -33.63825,-15.06033 -33.63825,-33.63825c0,-18.57797 15.06033,-33.6383 33.63825,-33.6383c18.57792,0 33.63825,15.06033 33.63825,33.6383z"/>
  <text font-weight="bold" xml:space="preserve" text-anchor="start" font-family="'Merriweather Sans'" font-size="40" fill="#000000" id="svg_3" y="341" x="62.58003" stroke-width="0" stroke="#000000">Routine App</text>
 </g>
</svg>